<?xml version="1.0" encoding="UTF-8"?>
<svg width="244px" height="66px" viewBox="0 0 244 66" version="1.1" xmlns="http://www.w3.org/2000/svg" xmlns:xlink="http://www.w3.org/1999/xlink">
    <title>block_empty_bool</title>
    <g id="函数" stroke="none" stroke-width="1" fill="none" fill-rule="evenodd">
        <g id="设计文档-函数参数编辑" transform="translate(-190.000000, -4391.000000)">
            <g id="编组-5" transform="translate(80.000000, 4018.000000)">
                <g id="block_empty_bool" transform="translate(111.228664, 374.000000)">
                    <!-- <path d="M219.526351,4 L219.564674,4.01808662 C220.867573,4.12903579 222.02753,4.74341012 222.850738,5.66666667 L241.11098,32.3333333 L241.110821,32.3550386 C241.38569,32.8403909 241.542673,33.4017931 241.542673,34 C241.542673,34.5982069 241.38569,35.1596091 241.110821,35.6449614 L241.11098,35.6666667 L222.847063,62.3333333 C222.027949,63.2561198 220.868754,63.8703385 219.566664,63.9817435 L219.526351,64 L24.0163218,64 L23.9750253,63.9813428 C22.6748289,63.868873 21.5174174,63.2550192 20.6956096,62.3333333 L2.43169259,35.6666667 L2.43073238,35.6429827 C2.1565566,35.1580835 2,34.5973941 2,34 C2,33.4026059 2.1565566,32.8419165 2.43073238,32.3570173 L2.43169259,32.3333333 L20.6956096,5.66666667 C21.5178382,4.74450884 22.6760143,4.13049849 23.9770226,4.01848486 L24.0163218,4 L219.526351,4 Z" id="路径" stroke="#5123D4" stroke-width="1.5" fill="#6D3AFD" stroke-linejoin="round"></path>
                    <path d="M218.526351,3 L218.564674,3.01808662 C219.867573,3.12903579 221.02753,3.74341012 221.850738,4.66666667 L240.11098,31.3333333 L240.110821,31.3550386 C240.38569,31.8403909 240.542673,32.4017931 240.542673,33 C240.542673,33.5982069 240.38569,34.1596091 240.110821,34.6449614 L240.11098,34.6666667 L221.847063,61.3333333 C221.027949,62.2561198 219.868754,62.8703385 218.566664,62.9817435 L218.526351,63 L23.0163218,63 L22.9750253,62.9813428 C21.6748289,62.868873 20.5174174,62.2550192 19.6956096,61.3333333 L1.43169259,34.6666667 L1.43073238,34.6429827 C1.1565566,34.1580835 1,33.5973941 1,33 C1,32.4026059 1.1565566,31.8419165 1.43073238,31.3570173 L1.43169259,31.3333333 L19.6956096,4.66666667 C20.5178382,3.74450884 21.6760143,3.13049849 22.9770226,3.01848486 L23.0163218,3 L218.526351,3 Z" id="路径" stroke="#5123D4" stroke-width="1.5" fill="#6D3AFD" stroke-linejoin="round"></path>
                    <path d="M218.526351,2 L218.564674,2.01808662 C219.867573,2.12903579 221.02753,2.74341012 221.850738,3.66666667 L240.11098,30.3333333 L240.110821,30.3550386 C240.38569,30.8403909 240.542673,31.4017931 240.542673,32 C240.542673,32.5982069 240.38569,33.1596091 240.110821,33.6449614 L240.11098,33.6666667 L221.847063,60.3333333 C221.027949,61.2561198 219.868754,61.8703385 218.566664,61.9817435 L218.526351,62 L23.0163218,62 L22.9750253,61.9813428 C21.6748289,61.868873 20.5174174,61.2550192 19.6956096,60.3333333 L1.43169259,33.6666667 L1.43073238,33.6429827 C1.1565566,33.1580835 1,32.5973941 1,32 C1,31.4026059 1.1565566,30.8419165 1.43073238,30.3570173 L1.43169259,30.3333333 L19.6956096,3.66666667 C20.5178382,2.74450884 21.6760143,2.13049849 22.9770226,2.01848486 L23.0163218,2 L218.526351,2 Z" id="路径" stroke="#5123D4" stroke-width="1.5" fill="#6D3AFD" stroke-linejoin="round"></path>
                    <path d="M217.526351,1 L217.564674,1.01808662 C218.867573,1.12903579 220.02753,1.74341012 220.850738,2.66666667 L239.11098,29.3333333 L239.110821,29.3550386 C239.38569,29.8403909 239.542673,30.4017931 239.542673,31 C239.542673,31.5982069 239.38569,32.1596091 239.110821,32.6449614 L239.11098,32.6666667 L220.847063,59.3333333 C220.027949,60.2561198 218.868754,60.8703385 217.566664,60.9817435 L217.526351,61 L22.0163218,61 L21.9750253,60.9813428 C20.6748289,60.868873 19.5174174,60.2550192 18.6956096,59.3333333 L0.431692585,32.6666667 L0.430732382,32.6429827 C0.156556603,32.1580835 0,31.5973941 0,31 C0,30.4026059 0.156556603,29.8419165 0.430732382,29.3570173 L0.431692585,29.3333333 L18.6956096,2.66666667 C19.5178382,1.74450884 20.6760143,1.13049849 21.9770226,1.01848486 L22.0163218,1 L217.526351,1 Z" id="路径" stroke="#5123D4" stroke-width="1.5" fill="#6D3AFD" stroke-linejoin="round"></path> -->
                    <!-- <path d="M217.526s351,0 L217.564674,0.0180866153 C218.867573,0.129035787 220.02753,0.743410123 220.850738,1.66666667 L239.11098,28.3333333 L239.110821,28.3550386 C239.38569,28.8403909 239.542673,29.4017931 239.542673,30 C239.542673,30.5982069 239.38569,31.1596091 239.110821,31.6449614 L239.11098,31.6666667 L220.847063,58.3333333 C220.027949,59.2561198 218.868754,59.8703385 217.566664,59.9817435 L217.526351,60 L22.0163218,60 L21.9750253,59.9813428 C20.6748289,59.868873 19.5174174,59.2550192 18.6956096,58.3333333 L0.431692585,31.6666667 L0.430732382,31.6429827 C0.156556603,31.1580835 0,30.5973941 0,30 C0,29.4026059 0.156556603,28.8419165 0.430732382,28.3570173 L0.431692585,28.3333333 L18.6956096,1.66666667 C19.5178382,0.744508843 20.6760143,0.130498495 21.9770226,0.0184848585 L22.0163218,0 L217.526351,0 Z" id="路径" stroke="#5123D4" stroke-width="1.5" fill="#6D3AFD" stroke-linejoin="round"></path> -->
                    <!-- <path d="m 18,0 H 127.92 a 4.5 4.5 0 0 1 3 1.5l18 27a3 3 0 0 1 0 3l-18 27a4.5 4.5 0 0 1-3 1.5H18a4.5 4.5 0 0 1-3-1.5l-18-27a3 3 0 0 1 0-3l18-27a4.5 4.5 0 0 1 3-1.5z" id="路径" stroke="#5123D4" stroke-width="1.5" fill="#6D3AFD" stroke-linejoin="round"></path> -->
                  
<path class="blocklyPath" fill="rgba(96, 143, 238, 1)" stroke="rgba(73, 110, 184, 1)" stroke-opacity="1" stroke-width="1px" d="M30 0H320.625a30 30 0 0 1 30 30 30 30 0 0 1-30 30H30a30 30 0 0 1-30-30 30 30 0 0 1 30-30z"></path>                  
                    <!-- <g id="编组-4" transform="translate(5.869333, 5.876232)">
                        <path d="M15.9083596,36.6274756 L16.7815836,38.0032087 C16.9227762,38.2256526 16.9977853,38.4836683 16.9978554,38.7471387 L17,46.8096236 L17,46.8096236 C17,47.5802535 16.3591892,48.2049724 15.568709,48.2049724 C15.095431,48.2049724 14.6527522,47.9768907 14.3861373,47.595675 L7.90864207,37.7000289 C7.56845575,37.1803275 7.7248336,36.4901759 8.25792176,36.1585322 C8.44191067,36.0440695 8.65562387,35.9832558 8.87388358,35.9832558 L14.735655,35.9828861 C15.2111206,35.9828561 15.6535597,36.2260474 15.9083596,36.6274756 Z" id="路径" fill="#52D3FF"></path>
                        <path d="M8.8214116,25.464945 L11.4871872,29.6639114 C11.8983129,30.3114915 11.7066288,31.1697421 11.0590487,31.5808679 C10.8364747,31.7221723 10.5782799,31.7972093 10.3146397,31.7972093 L4.46304788,31.7972093 L4.46304788,31.7972093 C4.0844204,31.7972093 3.73027338,31.6147391 3.51698246,31.3097599 L0.199078221,26.5655739 C-0.157160578,26.0561972 -0.0223812666,25.3617291 0.500116237,25.0144361 C0.690247337,24.88806 0.915025996,24.8204651 1.14514364,24.8204651 L7.64886413,24.8204651 C8.12425255,24.8204651 8.56661554,25.0636058 8.8214116,25.464945 Z" id="路径" fill="#FF614F"></path>
                        <path d="M16.3813001,0.246808221 C16.7686871,0.507262725 17,0.936714875 17,1.39547722 L16.9979621,10.8945947 C16.9979055,11.1581744 16.9228475,11.4162964 16.7815563,11.6388072 L11.4786396,19.9900401 C11.2238317,20.3913212 10.7815022,20.6344186 10.3061565,20.6344186 L2.89679669,20.6344186 L2.89679669,20.6344186 C2.26441254,20.6344186 1.75176389,20.1346434 1.75176389,19.5181395 C1.75176389,19.2986698 1.81812537,19.0840693 1.94255163,18.9011681 L14.390452,0.603291704 C14.8392336,-0.0311006688 15.7305667,-0.190703761 16.3813001,0.246808221 Z" id="路径" fill="#FBE201"></path>
                    </g> -->
                </g>
            </g>
        </g>
    </g>
</svg>